<?xml version="1.0" standalone="no"?>
<!DOCTYPE svg PUBLIC "-//W3C//DTD SVG 20010904//EN"
 "http://www.w3.org/TR/2001/REC-SVG-20010904/DTD/svg10.dtd">
<svg version="1.0" xmlns="http://www.w3.org/2000/svg"
 width="65.000000pt" height="65.000000pt" viewBox="0 0 65.000000 65.000000"
 preserveAspectRatio="xMidYMid meet">

<g transform="translate(0.000000,65.000000) scale(0.100000,-0.100000)"
fill="#000000" stroke="none">
<path d="M0 325 l0 -325 325 0 325 0 0 325 0 325 -325 0 -325 0 0 -325z m390
36 c0 -5 -10 -7 -21 -4 -16 5 -20 2 -17 -8 3 -8 11 -13 17 -11 6 1 11 -7 11
-19 0 -11 -4 -17 -10 -14 -5 3 -10 -3 -10 -14 0 -17 -6 -21 -32 -21 -29 0 -30
1 -15 18 20 22 22 43 5 60 -25 25 -37 13 -34 -33 2 -32 -1 -45 -11 -45 -14 0
-16 21 -7 69 6 30 7 31 65 31 33 0 59 -4 59 -9z m-83 -53 c-3 -7 -5 -2 -5 12
0 14 2 19 5 13 2 -7 2 -19 0 -25z m33 -168 c0 -5 -2 -10 -4 -10 -3 0 -8 5 -11
10 -3 6 -1 10 4 10 6 0 11 -4 11 -10z"/>
</g>
</svg>
